<svg xmlns="http://www.w3.org/2000/svg" xmlns:xlink="http://www.w3.org/1999/xlink">
  <defs>
    <symbol id="github" viewBox="0 0 16 16" fill="currentColor"><path d="M8 0.198c-4.418 0-8 3.582-8 8 0 3.535 2.292 6.533 5.471 7.591 0.4 0.074 0.547-0.174 0.547-0.385 0-0.191-0.008-0.821-0.011-1.489-2.226 0.484-2.695-0.944-2.695-0.944-0.364-0.925-0.888-1.171-0.888-1.171-0.726-0.497 0.055-0.486 0.055-0.486 0.803 0.056 1.226 0.824 1.226 0.824 0.714 1.223 1.872 0.869 2.328 0.665 0.072-0.517 0.279-0.87 0.508-1.070-1.777-0.202-3.645-0.888-3.645-3.954 0-0.873 0.313-1.587 0.824-2.147-0.083-0.202-0.357-1.015 0.077-2.117 0 0 0.672-0.215 2.201 0.82 0.638-0.177 1.322-0.266 2.002-0.269 0.68 0.003 1.365 0.092 2.004 0.269 1.527-1.035 2.198-0.82 2.198-0.82 0.435 1.102 0.162 1.916 0.079 2.117 0.513 0.56 0.823 1.274 0.823 2.147 0 3.073-1.872 3.749-3.653 3.947 0.287 0.248 0.543 0.735 0.543 1.481 0 1.070-0.009 1.932-0.009 2.195 0 0.213 0.144 0.462 0.55 0.384 3.177-1.059 5.466-4.057 5.466-7.59 0-4.418-3.582-8-8-8z"></path></symbol>
    <symbol id="dark" viewBox="0 0 24 24" fill="currentColor"><path fill-rule="evenodd" d="M9.528 1.718a.75.75 0 01.162.819A8.97 8.97 0 009 6a9 9 0 009 9 8.97 8.97 0 003.463-.69.75.75 0 01.981.98 10.503 10.503 0 01-9.694 6.46c-5.799 0-10.5-4.701-10.5-10.5 0-4.368 2.667-8.112 6.46-9.694a.75.75 0 01.818.162z" clip-rule="evenodd"/></symbol>
    <symbol id="light" viewBox="0 0 1024 1024" fill="currentColor"><path d="M512 256c-140.8 0-256 115.2-256 256s115.2 256 256 256 256-115.2 256-256-115.2-256-256-256z m0-85.333333c25.6 0 42.666667-17.066667 42.666667-42.666667V42.666667c0-25.6-17.066667-42.666667-42.666667-42.666667s-42.666667 17.066667-42.666667 42.666667v85.333333c0 25.6 17.066667 42.666667 42.666667 42.666667z m0 682.666666c-25.6 0-42.666667 17.066667-42.666667 42.666667v85.333333c0 25.6 17.066667 42.666667 42.666667 42.666667s42.666667-17.066667 42.666667-42.666667v-85.333333c0-25.6-17.066667-42.666667-42.666667-42.666667zM209.066667 268.8c17.066667 17.066667 42.666667 17.066667 59.733333 4.266667 21.333333-17.066667 21.333333-42.666667 4.266667-59.733334l-4.266667-4.266666-59.733333-59.733334c-17.066667-17.066667-42.666667-17.066667-59.733334-4.266666s-17.066667 42.666667-4.266666 59.733333l4.266666 4.266667 59.733334 59.733333z m605.866666 482.133333c-17.066667-17.066667-42.666667-12.8-59.733333 4.266667-17.066667 17.066667-17.066667 42.666667 0 59.733333l59.733333 59.733334c17.066667 17.066667 42.666667 17.066667 59.733334 4.266666s17.066667-42.666667 4.266666-59.733333l-4.266666-4.266667-59.733334-64zM170.666667 512c0-25.6-17.066667-42.666667-42.666667-42.666667H42.666667c-25.6 0-42.666667 17.066667-42.666667 42.666667s17.066667 42.666667 42.666667 42.666667h85.333333c25.6 0 42.666667-17.066667 42.666667-42.666667z m810.666666-42.666667h-85.333333c-25.6 0-42.666667 17.066667-42.666667 42.666667s17.066667 42.666667 42.666667 42.666667h85.333333c25.6 0 42.666667-17.066667 42.666667-42.666667s-17.066667-42.666667-42.666667-42.666667zM209.066667 750.933333L149.333333 810.666667c-17.066667 17.066667-17.066667 42.666667-4.266666 59.733333s42.666667 17.066667 59.733333 4.266667l4.266667-4.266667L268.8 810.666667c17.066667-17.066667 17.066667-42.666667 4.266667-59.733334s-42.666667-17.066667-64 0z m576-469.333333c12.8 0 21.333333-4.266667 29.866666-12.8l59.733334-59.733333c17.066667-17.066667 17.066667-42.666667 4.266666-59.733334-17.066667-17.066667-42.666667-17.066667-59.733333-4.266666l-4.266667 4.266666-59.733333 59.733334c-17.066667 17.066667-17.066667 42.666667 0 59.733333 4.266667 8.533333 17.066667 12.8 29.866667 12.8z"></path></symbol>
    <symbol id="system" viewBox="0 0 1024 1024" fill="currentColor"><path d="M542.250667 55.168a42.666667 42.666667 0 0 0-60.330667 0L381.824 155.050667H197.76a42.666667 42.666667 0 0 0-42.666667 42.666666V381.866667L55.168 481.706667a42.666667 42.666667 0 0 0 0 60.330666l99.925333 100.096v184.064a42.666667 42.666667 0 0 0 42.666667 42.666667H381.866667l100.096 99.968a42.666667 42.666667 0 0 0 60.330666 0l99.925334-99.968h184.064a42.666667 42.666667 0 0 0 42.666666-42.666667V642.133333l99.968-100.096a42.666667 42.666667 0 0 0 0-60.330666L868.864 381.866667V197.76a42.666667 42.666667 0 0 0-42.666667-42.666667H642.133333L542.293333 55.168z m-112.64 172.8l82.432-82.346667 82.304 82.346667a42.666667 42.666667 0 0 0 30.165333 12.458667h159.061333v159.061333a42.666667 42.666667 0 0 0 12.501334 30.165333L878.336 512l-82.304 82.389333a42.666667 42.666667 0 0 0-12.458667 30.165334v159.061333h-159.061333a42.666667 42.666667 0 0 0-30.165333 12.501333L512 878.336l-82.389333-82.304a42.666667 42.666667 0 0 0-30.165334-12.458667H240.426667v-159.061333a42.666667 42.666667 0 0 0-12.458667-30.165333L145.621333 512l82.346667-82.304a42.666667 42.666667 0 0 0 12.458667-30.165333V240.426667h159.061333a42.666667 42.666667 0 0 0 30.165333-12.458667z"></path><path d="M512.042667 145.664L429.653333 227.968a42.666667 42.666667 0 0 1-30.165333 12.458667H240.426667v159.061333a42.666667 42.666667 0 0 1-12.501334 30.165333L145.664 512l82.304 82.389333a42.666667 42.666667 0 0 1 12.458667 30.165334v159.061333h159.061333a42.666667 42.666667 0 0 1 30.165333 12.458667L512 878.378667l82.304-82.346667a42.666667 42.666667 0 0 1 30.165333-12.458667h159.061334v-159.061333a42.666667 42.666667 0 0 1 12.458666-30.165333L878.378667 512l-82.346667-82.304a42.666667 42.666667 0 0 1-12.458667-30.165333V240.426667h-159.061333a42.666667 42.666667 0 0 1-30.165333-12.501334L512 145.664z m5.248 153.344c107.093333 13.397333 186.709333 106.666667 186.709333 212.992 0 106.197333-79.445333 199.850667-187.178667 212.096a42.666667 42.666667 0 0 1-9.642666-84.778667C570.112 632.149333 618.666667 576.469333 618.666667 512c0-64.341333-48.64-120.405333-111.957334-128.341333a42.666667 42.666667 0 0 1 10.581334-84.650667z"></path></symbol>
<!--    <symbol id="system" viewBox="0 0 16 16" fill="currentColor"><path d="M8 1a7 7 0 1 0 0 14A7 7 0 0 0 8 1zm0 13V2a6 6 0 1 1 0 12z"/></symbol>-->
    <symbol id="features" viewBox="0 0 54 14"><g fill="none" fill-rule="evenodd" transform="translate(1 1)"><circle cx="6" cy="6" r="6" fill="#FF5F56" stroke="#E0443E" stroke-width=".5"></circle><circle cx="26" cy="6" r="6" fill="#FFBD2E" stroke="#DEA123" stroke-width=".5"></circle><circle cx="46" cy="6" r="6" fill="#27C93F" stroke="#1AAB29" stroke-width=".5"></circle></g></symbol>
    <symbol id="gatsby" viewBox="0 0 24 24">
      <g fill="currentColor">
        <path fill="none" d="M0 0h24v24H0z"/>
        <path fill-rule="nonzero" d="M12 2C6.5 2 2 6.5 2 12s4.5 10 10 10 10-4.5 10-10S17.5 2 12 2zM6.429 17.571c-1.5-1.5-2.286-3.5-2.286-5.428l7.786 7.714c-2-.071-4-.786-5.5-2.286zm7.285 2.072l-9.357-9.357c.786-3.5 3.929-6.143 7.643-6.143 2.643 0 4.929 1.286 6.357 3.214l-1.071.929C16.07 6.643 14.143 5.57 12 5.57c-2.786 0-5.143 1.786-6.071 4.286l8.214 8.214c2.071-.714 3.643-2.5 4.143-4.642h-3.429V12h5c0 3.714-2.643 6.857-6.143 7.643z"/>
      </g>
    </symbol>
  </defs>
</svg>
